<svg width="14" height="14" viewBox="0 0 14 14" fill="none" xmlns="http://www.w3.org/2000/svg">
<g id="cross-small 1">
<g id="Vector">
<path d="M10.4999 3.49989C10.3905 3.39054 10.2422 3.3291 10.0875 3.3291C9.9328 3.3291 9.78445 3.39054 9.67506 3.49989L6.99989 6.17506L4.32473 3.49989C4.21534 3.39054 4.06699 3.3291 3.91231 3.3291C3.75763 3.3291 3.60928 3.39054 3.49989 3.49989C3.39054 3.60928 3.3291 3.75763 3.3291 3.91231C3.3291 4.06699 3.39054 4.21534 3.49989 4.32473L6.17506 6.99989L3.49989 9.67506C3.39054 9.78445 3.3291 9.9328 3.3291 10.0875C3.3291 10.2422 3.39054 10.3905 3.49989 10.4999C3.60928 10.6093 3.75763 10.6707 3.91231 10.6707C4.06699 10.6707 4.21534 10.6093 4.32473 10.4999L6.99989 7.82473L9.67506 10.4999C9.78445 10.6093 9.9328 10.6707 10.0875 10.6707C10.2422 10.6707 10.3905 10.6093 10.4999 10.4999C10.6093 10.3905 10.6707 10.2422 10.6707 10.0875C10.6707 9.9328 10.6093 9.78445 10.4999 9.67506L7.82473 6.99989L10.4999 4.32473C10.6093 4.21534 10.6707 4.06699 10.6707 3.91231C10.6707 3.75763 10.6093 3.60928 10.4999 3.49989Z" fill="#2460D2"/>
<path d="M10.4999 3.49989C10.3905 3.39054 10.2422 3.3291 10.0875 3.3291C9.9328 3.3291 9.78445 3.39054 9.67506 3.49989L6.99989 6.17506L4.32473 3.49989C4.21534 3.39054 4.06699 3.3291 3.91231 3.3291C3.75763 3.3291 3.60928 3.39054 3.49989 3.49989C3.39054 3.60928 3.3291 3.75763 3.3291 3.91231C3.3291 4.06699 3.39054 4.21534 3.49989 4.32473L6.17506 6.99989L3.49989 9.67506C3.39054 9.78445 3.3291 9.9328 3.3291 10.0875C3.3291 10.2422 3.39054 10.3905 3.49989 10.4999C3.60928 10.6093 3.75763 10.6707 3.91231 10.6707C4.06699 10.6707 4.21534 10.6093 4.32473 10.4999L6.99989 7.82473L9.67506 10.4999C9.78445 10.6093 9.9328 10.6707 10.0875 10.6707C10.2422 10.6707 10.3905 10.6093 10.4999 10.4999C10.6093 10.3905 10.6707 10.2422 10.6707 10.0875C10.6707 9.9328 10.6093 9.78445 10.4999 9.67506L7.82473 6.99989L10.4999 4.32473C10.6093 4.21534 10.6707 4.06699 10.6707 3.91231C10.6707 3.75763 10.6093 3.60928 10.4999 3.49989Z" fill="black" fill-opacity="0.2"/>
<path d="M10.4999 3.49989C10.3905 3.39054 10.2422 3.3291 10.0875 3.3291C9.9328 3.3291 9.78445 3.39054 9.67506 3.49989L6.99989 6.17506L4.32473 3.49989C4.21534 3.39054 4.06699 3.3291 3.91231 3.3291C3.75763 3.3291 3.60928 3.39054 3.49989 3.49989C3.39054 3.60928 3.3291 3.75763 3.3291 3.91231C3.3291 4.06699 3.39054 4.21534 3.49989 4.32473L6.17506 6.99989L3.49989 9.67506C3.39054 9.78445 3.3291 9.9328 3.3291 10.0875C3.3291 10.2422 3.39054 10.3905 3.49989 10.4999C3.60928 10.6093 3.75763 10.6707 3.91231 10.6707C4.06699 10.6707 4.21534 10.6093 4.32473 10.4999L6.99989 7.82473L9.67506 10.4999C9.78445 10.6093 9.9328 10.6707 10.0875 10.6707C10.2422 10.6707 10.3905 10.6093 10.4999 10.4999C10.6093 10.3905 10.6707 10.2422 10.6707 10.0875C10.6707 9.9328 10.6093 9.78445 10.4999 9.67506L7.82473 6.99989L10.4999 4.32473C10.6093 4.21534 10.6707 4.06699 10.6707 3.91231C10.6707 3.75763 10.6093 3.60928 10.4999 3.49989Z" fill="black" fill-opacity="0.2"/>
<path d="M10.4999 3.49989C10.3905 3.39054 10.2422 3.3291 10.0875 3.3291C9.9328 3.3291 9.78445 3.39054 9.67506 3.49989L6.99989 6.17506L4.32473 3.49989C4.21534 3.39054 4.06699 3.3291 3.91231 3.3291C3.75763 3.3291 3.60928 3.39054 3.49989 3.49989C3.39054 3.60928 3.3291 3.75763 3.3291 3.91231C3.3291 4.06699 3.39054 4.21534 3.49989 4.32473L6.17506 6.99989L3.49989 9.67506C3.39054 9.78445 3.3291 9.9328 3.3291 10.0875C3.3291 10.2422 3.39054 10.3905 3.49989 10.4999C3.60928 10.6093 3.75763 10.6707 3.91231 10.6707C4.06699 10.6707 4.21534 10.6093 4.32473 10.4999L6.99989 7.82473L9.67506 10.4999C9.78445 10.6093 9.9328 10.6707 10.0875 10.6707C10.2422 10.6707 10.3905 10.6093 10.4999 10.4999C10.6093 10.3905 10.6707 10.2422 10.6707 10.0875C10.6707 9.9328 10.6093 9.78445 10.4999 9.67506L7.82473 6.99989L10.4999 4.32473C10.6093 4.21534 10.6707 4.06699 10.6707 3.91231C10.6707 3.75763 10.6093 3.60928 10.4999 3.49989Z" fill="black" fill-opacity="0.2"/>
<path d="M10.4999 3.49989C10.3905 3.39054 10.2422 3.3291 10.0875 3.3291C9.9328 3.3291 9.78445 3.39054 9.67506 3.49989L6.99989 6.17506L4.32473 3.49989C4.21534 3.39054 4.06699 3.3291 3.91231 3.3291C3.75763 3.3291 3.60928 3.39054 3.49989 3.49989C3.39054 3.60928 3.3291 3.75763 3.3291 3.91231C3.3291 4.06699 3.39054 4.21534 3.49989 4.32473L6.17506 6.99989L3.49989 9.67506C3.39054 9.78445 3.3291 9.9328 3.3291 10.0875C3.3291 10.2422 3.39054 10.3905 3.49989 10.4999C3.60928 10.6093 3.75763 10.6707 3.91231 10.6707C4.06699 10.6707 4.21534 10.6093 4.32473 10.4999L6.99989 7.82473L9.67506 10.4999C9.78445 10.6093 9.9328 10.6707 10.0875 10.6707C10.2422 10.6707 10.3905 10.6093 10.4999 10.4999C10.6093 10.3905 10.6707 10.2422 10.6707 10.0875C10.6707 9.9328 10.6093 9.78445 10.4999 9.67506L7.82473 6.99989L10.4999 4.32473C10.6093 4.21534 10.6707 4.06699 10.6707 3.91231C10.6707 3.75763 10.6093 3.60928 10.4999 3.49989Z" fill="black" fill-opacity="0.2"/>
</g>
</g>
</svg>
