<svg width="24" height="24" viewBox="0 0 24 24" fill="none" xmlns="http://www.w3.org/2000/svg">
<g id="pencil 1" clip-path="url(#clip0_1_5245)">
<path id="Vector" d="M22.853 1.06006C22.1732 0.38126 21.2517 0 20.291 0C19.3303 0 18.4089 0.38126 17.729 1.06006L1.46501 17.3241C0.999266 17.7872 0.629977 18.3381 0.378513 18.9449C0.127049 19.5516 -0.00159798 20.2022 1.49812e-05 20.8591V22.9121C1.49812e-05 23.1773 0.105372 23.4316 0.292908 23.6192C0.480445 23.8067 0.734798 23.9121 1.00001 23.9121H3.05301C3.70978 23.9139 4.36038 23.7855 4.96717 23.5342C5.57396 23.2829 6.12487 22.9137 6.58801 22.4481L22.853 6.18306C23.5315 5.50326 23.9126 4.58203 23.9126 3.62156C23.9126 2.6611 23.5315 1.73987 22.853 1.06006ZM5.17401 21.0341C4.61002 21.5943 3.84798 21.9098 3.05301 21.9121H2.00001V20.8591C1.999 20.465 2.07617 20.0746 2.22705 19.7105C2.37793 19.3464 2.59953 19.0159 2.87901 18.7381L15.222 6.39506L17.522 8.69506L5.17401 21.0341ZM21.438 4.76906L18.932 7.27606L16.632 4.98106L19.139 2.47406C19.29 2.32337 19.4693 2.2039 19.6664 2.12247C19.8636 2.04104 20.0749 1.99925 20.2883 1.99949C20.5016 1.99972 20.7128 2.04197 20.9098 2.12383C21.1069 2.20568 21.2858 2.32554 21.4365 2.47656C21.5872 2.62758 21.7067 2.80681 21.7881 3.004C21.8695 3.20119 21.9113 3.41249 21.9111 3.62583C21.9109 3.83917 21.8686 4.05038 21.7868 4.2474C21.7049 4.44441 21.585 4.62337 21.434 4.77406L21.438 4.76906Z" fill="black"/>
</g>
<defs>
<clipPath id="clip0_1_5245">
<rect width="24" height="24" fill="white"/>
</clipPath>
</defs>
</svg>
