<svg width="100" height="100" viewBox="0 0 100 100" fill="none" xmlns="http://www.w3.org/2000/svg">
<g id="cross-circle 1" clip-path="url(#clip0_1_6938)">
<path id="Vector" d="M66.6665 33.3332C65.8852 32.5521 64.8256 32.1133 63.7207 32.1133C62.6159 32.1133 61.5562 32.5521 60.7749 33.3332L49.9999 44.1082L39.2249 33.3332C38.439 32.5742 37.3865 32.1543 36.294 32.1638C35.2015 32.1732 34.1565 32.6114 33.384 33.384C32.6114 34.1565 32.1732 35.2016 32.1637 36.2941C32.1542 37.3865 32.5742 38.439 33.3332 39.2249L44.1082 49.9999L33.3332 60.7749C32.5742 61.5607 32.1542 62.6132 32.1637 63.7057C32.1732 64.7982 32.6114 65.8433 33.384 66.6158C34.1565 67.3883 35.2015 67.8265 36.294 67.836C37.3865 67.8455 38.439 67.4255 39.2249 66.6666L49.9999 55.8916L60.7749 66.6666C61.5607 67.4255 62.6132 67.8455 63.7057 67.836C64.7982 67.8265 65.8433 67.3883 66.6158 66.6158C67.3883 65.8433 67.8265 64.7982 67.836 63.7057C67.8455 62.6132 67.4255 61.5607 66.6665 60.7749L55.8915 49.9999L66.6665 39.2249C67.4477 38.4435 67.8865 37.3839 67.8865 36.2791C67.8865 35.1742 67.4477 34.1146 66.6665 33.3332Z" fill="#FF6666"/>
<path id="Vector_2" d="M50 0C40.111 0 30.444 2.93245 22.2215 8.42652C13.9991 13.9206 7.59043 21.7295 3.80605 30.8658C0.0216643 40.0021 -0.968503 50.0555 0.960758 59.7545C2.89002 69.4536 7.65206 78.3627 14.6447 85.3553C21.6373 92.348 30.5465 97.11 40.2455 99.0393C49.9446 100.969 59.9979 99.9784 69.1342 96.194C78.2705 92.4096 86.0794 86.001 91.5735 77.7785C97.0676 69.5561 100 59.8891 100 50C99.9857 36.7436 94.7132 24.0342 85.3395 14.6605C75.9658 5.28678 63.2564 0.0143378 50 0ZM50 91.6667C41.7591 91.6667 33.7033 89.223 26.8513 84.6446C19.9992 80.0662 14.6587 73.5587 11.505 65.9452C8.35139 58.3316 7.52625 49.9538 9.13397 41.8712C10.7417 33.7887 14.7101 26.3644 20.5372 20.5372C26.3644 14.71 33.7887 10.7417 41.8713 9.13395C49.9538 7.52623 58.3316 8.35137 65.9452 11.505C73.5588 14.6587 80.0662 19.9992 84.6446 26.8512C89.223 33.7033 91.6667 41.7591 91.6667 50C91.6546 61.047 87.2608 71.638 79.4494 79.4494C71.638 87.2608 61.047 91.6545 50 91.6667Z" fill="#FF6666"/>
</g>
<defs>
<clipPath id="clip0_1_6938">
<rect width="100" height="100" fill="white"/>
</clipPath>
</defs>
</svg>
