<svg width="18" height="18" viewBox="0 0 18 18" fill="none" xmlns="http://www.w3.org/2000/svg">
<path d="M18 9.2025C18 8.61 17.9464 8.0475 17.8544 7.5H9.1954V10.8825H14.1533C13.931 11.9925 13.2797 12.93 12.3142 13.5675V15.8175H15.272C17.0038 14.25 18 11.94 18 9.2025Z" fill="#4285F4"/>
<path d="M9.19544 18.0003C11.6782 18.0003 13.7548 17.1903 15.2721 15.8178L12.3142 13.5678C11.4866 14.1078 10.4368 14.4378 9.19544 14.4378C6.79697 14.4378 4.76632 12.8553 4.03835 10.7178H0.988541V13.0353C2.49812 15.9753 5.60157 18.0003 9.19544 18.0003Z" fill="#34A853"/>
<path d="M4.03831 10.7173C3.84674 10.1773 3.74713 9.59984 3.74713 8.99984C3.74713 8.39984 3.85441 7.82234 4.03831 7.28234V4.96484H0.988505C0.360153 6.17984 0 7.54484 0 8.99984C0 10.4548 0.360153 11.8198 0.988505 13.0348L4.03831 10.7173Z" fill="#FBBC05"/>
<path d="M9.19544 3.5625C10.5518 3.5625 11.7625 4.02 12.7203 4.9125L15.341 2.3475C13.7548 0.892501 11.6782 0 9.19544 0C5.60157 0 2.49812 2.025 0.988541 4.965L4.03835 7.2825C4.76632 5.145 6.79697 3.5625 9.19544 3.5625Z" fill="#EA4335"/>
</svg>
