<svg width="17" height="17" viewBox="0 0 17 17" fill="none" xmlns="http://www.w3.org/2000/svg">
<g id="Rectangles">
<g id="Rectangle 112">
<rect width="5" height="5" rx="1" fill="#2460D2"/>
<rect width="5" height="5" rx="1" fill="black" fill-opacity="0.2"/>
<rect width="5" height="5" rx="1" fill="black" fill-opacity="0.2"/>
<rect width="5" height="5" rx="1" fill="black" fill-opacity="0.2"/>
<rect width="5" height="5" rx="1" fill="black" fill-opacity="0.2"/>
</g>
<g id="Rectangle 113">
<rect x="6" width="5" height="5" rx="1" fill="#2460D2"/>
<rect x="6" width="5" height="5" rx="1" fill="black" fill-opacity="0.2"/>
<rect x="6" width="5" height="5" rx="1" fill="black" fill-opacity="0.2"/>
<rect x="6" width="5" height="5" rx="1" fill="black" fill-opacity="0.2"/>
<rect x="6" width="5" height="5" rx="1" fill="black" fill-opacity="0.2"/>
</g>
<g id="Rectangle 114">
<rect y="6" width="5" height="5" rx="1" fill="#2460D2"/>
<rect y="6" width="5" height="5" rx="1" fill="black" fill-opacity="0.2"/>
<rect y="6" width="5" height="5" rx="1" fill="black" fill-opacity="0.2"/>
<rect y="6" width="5" height="5" rx="1" fill="black" fill-opacity="0.2"/>
<rect y="6" width="5" height="5" rx="1" fill="black" fill-opacity="0.2"/>
</g>
<g id="Rectangle 115">
<rect x="6" y="6" width="5" height="5" rx="1" fill="#2460D2"/>
<rect x="6" y="6" width="5" height="5" rx="1" fill="black" fill-opacity="0.2"/>
<rect x="6" y="6" width="5" height="5" rx="1" fill="black" fill-opacity="0.2"/>
<rect x="6" y="6" width="5" height="5" rx="1" fill="black" fill-opacity="0.2"/>
<rect x="6" y="6" width="5" height="5" rx="1" fill="black" fill-opacity="0.2"/>
</g>
<g id="Rectangle 116">
<rect x="12" width="5" height="5" rx="1" fill="#2460D2"/>
<rect x="12" width="5" height="5" rx="1" fill="black" fill-opacity="0.2"/>
<rect x="12" width="5" height="5" rx="1" fill="black" fill-opacity="0.2"/>
<rect x="12" width="5" height="5" rx="1" fill="black" fill-opacity="0.2"/>
<rect x="12" width="5" height="5" rx="1" fill="black" fill-opacity="0.2"/>
</g>
<g id="Rectangle 117">
<rect x="12" y="6" width="5" height="5" rx="1" fill="#2460D2"/>
<rect x="12" y="6" width="5" height="5" rx="1" fill="black" fill-opacity="0.2"/>
<rect x="12" y="6" width="5" height="5" rx="1" fill="black" fill-opacity="0.2"/>
<rect x="12" y="6" width="5" height="5" rx="1" fill="black" fill-opacity="0.2"/>
<rect x="12" y="6" width="5" height="5" rx="1" fill="black" fill-opacity="0.2"/>
</g>
<g id="Rectangle 118">
<rect y="12" width="5" height="5" rx="1" fill="#2460D2"/>
<rect y="12" width="5" height="5" rx="1" fill="black" fill-opacity="0.2"/>
<rect y="12" width="5" height="5" rx="1" fill="black" fill-opacity="0.2"/>
<rect y="12" width="5" height="5" rx="1" fill="black" fill-opacity="0.2"/>
<rect y="12" width="5" height="5" rx="1" fill="black" fill-opacity="0.2"/>
</g>
<g id="Rectangle 119">
<rect x="6" y="12" width="5" height="5" rx="1" fill="#2460D2"/>
<rect x="6" y="12" width="5" height="5" rx="1" fill="black" fill-opacity="0.2"/>
<rect x="6" y="12" width="5" height="5" rx="1" fill="black" fill-opacity="0.2"/>
<rect x="6" y="12" width="5" height="5" rx="1" fill="black" fill-opacity="0.2"/>
<rect x="6" y="12" width="5" height="5" rx="1" fill="black" fill-opacity="0.2"/>
</g>
<g id="Rectangle 120">
<rect x="12" y="12" width="5" height="5" rx="1" fill="#2460D2"/>
<rect x="12" y="12" width="5" height="5" rx="1" fill="black" fill-opacity="0.2"/>
<rect x="12" y="12" width="5" height="5" rx="1" fill="black" fill-opacity="0.2"/>
<rect x="12" y="12" width="5" height="5" rx="1" fill="black" fill-opacity="0.2"/>
<rect x="12" y="12" width="5" height="5" rx="1" fill="black" fill-opacity="0.2"/>
</g>
</g>
</svg>
