<svg width="40" height="40" viewBox="0 0 40 40" fill="none" xmlns="http://www.w3.org/2000/svg">
<g id="instagram-with-circle-svgrepo-com 1" clip-path="url(#clip0_1_5355)">
<path id="Vector" d="M28.1208 13.8563C27.9473 13.4068 27.6815 12.9986 27.3406 12.6581C26.9998 12.3176 26.5913 12.0522 26.1417 11.8792C25.5225 11.6498 24.8686 11.5286 24.2083 11.5208C23.1104 11.4708 22.7813 11.4583 20 11.4583C17.2188 11.4583 16.8896 11.4708 15.7917 11.5208C15.1308 11.5284 14.4761 11.6496 13.8563 11.8792C13.4068 12.0527 12.9986 12.3185 12.6581 12.6594C12.3176 13.0002 12.0523 13.4087 11.8792 13.8583C11.6499 14.4775 11.5286 15.1315 11.5208 15.7917C11.4708 16.8896 11.4583 17.2188 11.4583 20C11.4583 22.7813 11.4708 23.1104 11.5208 24.2083C11.5284 24.8692 11.6496 25.5239 11.8792 26.1438C12.0527 26.5932 12.3185 27.0014 12.6594 27.3419C13.0003 27.6824 13.4087 27.9478 13.8583 28.1208C14.4775 28.3502 15.1315 28.4714 15.7917 28.4792C16.8896 28.5292 17.2188 28.5396 20 28.5396C22.7813 28.5396 23.1104 28.5292 24.2083 28.4771C24.8691 28.4702 25.5238 28.3497 26.1438 28.1208C26.5932 27.9473 27.0014 27.6815 27.3419 27.3406C27.6824 26.9998 27.9478 26.5913 28.1208 26.1417C28.3502 25.5225 28.4714 24.8685 28.4792 24.2083C28.5292 23.1104 28.5396 22.7813 28.5396 20C28.5396 17.2188 28.5292 16.8896 28.4771 15.7917C28.4702 15.1309 28.3497 14.4762 28.1208 13.8563ZM20 25.35C18.9419 25.35 17.9075 25.0362 17.0277 24.4484C16.1479 23.8605 15.4622 23.0249 15.0573 22.0474C14.6523 21.0698 14.5464 19.9941 14.7528 18.9563C14.9592 17.9185 15.4688 16.9652 16.217 16.217C16.9652 15.4688 17.9185 14.9592 18.9563 14.7528C19.9941 14.5464 21.0698 14.6523 22.0474 15.0572C23.025 15.4622 23.8605 16.1479 24.4484 17.0277C25.0362 17.9075 25.35 18.9419 25.35 20C25.35 21.4189 24.7864 22.7797 23.783 23.783C22.7797 24.7863 21.4189 25.35 20 25.35ZM25.5604 15.6896C25.3132 15.6896 25.0715 15.6163 24.866 15.4789C24.6604 15.3416 24.5002 15.1463 24.4056 14.9179C24.311 14.6895 24.2862 14.4382 24.3344 14.1957C24.3827 13.9532 24.5017 13.7305 24.6765 13.5557C24.8514 13.3809 25.0741 13.2618 25.3166 13.2136C25.559 13.1654 25.8104 13.1901 26.0388 13.2847C26.2672 13.3793 26.4624 13.5396 26.5998 13.7451C26.7371 13.9507 26.8104 14.1924 26.8104 14.4396C26.8104 14.7711 26.6787 15.089 26.4443 15.3235C26.2099 15.5579 25.8919 15.6896 25.5604 15.6896ZM23.4729 20C23.4729 20.6869 23.2692 21.3583 22.8876 21.9295C22.506 22.5006 21.9636 22.9457 21.329 23.2086C20.6944 23.4714 19.9962 23.5402 19.3225 23.4062C18.6488 23.2722 18.03 22.9414 17.5443 22.4557C17.0586 21.97 16.7278 21.3512 16.5938 20.6775C16.4598 20.0039 16.5286 19.3056 16.7915 18.671C17.0543 18.0364 17.4994 17.494 18.0706 17.1124C18.6417 16.7308 19.3131 16.5271 20 16.5271C20.9211 16.5271 21.8044 16.893 22.4557 17.5443C23.107 18.1956 23.4729 19.0789 23.4729 20ZM20 0C16.0444 0 12.1776 1.17298 8.88861 3.37061C5.59962 5.56824 3.03617 8.69181 1.52242 12.3463C0.00866565 16.0009 -0.387401 20.0222 0.384303 23.9018C1.15601 27.7814 3.06082 31.3451 5.85787 34.1421C8.65492 36.9392 12.2186 38.844 16.0982 39.6157C19.9778 40.3874 23.9992 39.9913 27.6537 38.4776C31.3082 36.9638 34.4318 34.4004 36.6294 31.1114C38.827 27.8224 40 23.9556 40 20C40 14.6957 37.8929 9.60859 34.1421 5.85786C30.3914 2.10714 25.3043 0 20 0ZM30.3542 24.2938C30.3365 25.1582 30.1724 26.0134 29.8688 26.8229C29.6012 27.5147 29.1921 28.143 28.6676 28.6676C28.1431 29.1921 27.5148 29.6012 26.8229 29.8688C26.014 30.1722 25.1596 30.3363 24.2958 30.3542C23.1833 30.4042 22.8292 30.4167 20 30.4167C17.1708 30.4167 16.8167 30.4042 15.7042 30.3542C14.8404 30.3363 13.986 30.1722 13.1771 29.8688C12.4853 29.6012 11.857 29.1921 11.3325 28.6676C10.8079 28.143 10.3988 27.5147 10.1313 26.8229C9.82785 26.014 9.66372 25.1596 9.64584 24.2958C9.59584 23.1833 9.58334 22.8292 9.58334 20C9.58334 17.1708 9.59584 16.8167 9.64584 15.7042C9.66305 14.8406 9.82647 13.9861 10.1292 13.1771C10.3967 12.4847 10.8061 11.8558 11.331 11.3309C11.8558 10.8061 12.4847 10.3967 13.1771 10.1292C13.9861 9.82646 14.8406 9.66304 15.7042 9.64583C16.8167 9.59583 17.1708 9.58333 20 9.58333C22.8292 9.58333 23.1833 9.59583 24.2958 9.64583C25.1595 9.66304 26.0139 9.82646 26.8229 10.1292C27.515 10.3969 28.1434 10.8064 28.6679 11.3313C29.1924 11.8562 29.6015 12.4849 29.8688 13.1771C30.1722 13.986 30.3363 14.8404 30.3542 15.7042C30.4042 16.8167 30.4167 17.1708 30.4167 20C30.4167 22.8292 30.4042 23.1813 30.3542 24.2938Z" fill="#0E273A"/>
</g>
<defs>
<clipPath id="clip0_1_5355">
<rect width="40" height="40" fill="white"/>
</clipPath>
</defs>
</svg>
