<svg width="40" height="48" viewBox="0 0 40 48" fill="none" xmlns="http://www.w3.org/2000/svg">
<g id="Frame 19">
<circle id="Ellipse 7" cx="20" cy="20" r="20" fill="#0E273A"/>
<g id="Vector">
<path d="M21.5769 3L15.8076 15.6923V3H11V37.6155H15.8076V24.9232L21.5769 37.6155H28.3077C25.4231 33.3846 21.3302 28.8655 18.4456 24.6347C23.8943 28.4809 26.5513 31.6538 32 35.5L35.5 32.5L34.5 33L36.5 30.5L38 28.5C33.5129 26.1924 23.8815 24.665 19.3944 22.3573C23.8815 23.1266 30.5129 24.7307 35 25.5L37 26L38.5 26.5V25.5V26V26.5L39 24.5L39.5 22.5V22V21V20V19.5V18V17L39 15.5L19.3944 18.9413C24.5226 16.2491 32.3718 13.6923 37.5 11L36.5 9L35 7L32 4.5C26.5513 8.34619 23.8943 12.8176 18.4456 16.664L28.3077 3H21.5769Z" fill="white"/>
<path d="M35.5 32.5L36.5 30.5M35.5 32.5L32 35.5C26.5513 31.6538 23.8943 28.4809 18.4456 24.6347C21.3302 28.8655 25.4231 33.3846 28.3077 37.6155H21.5769L15.8076 24.9232V37.6155H11V3H15.8076V15.6923L21.5769 3H28.3077L18.4456 16.664C23.8943 12.8176 26.5513 8.34619 32 4.5L35 7L36.5 9L37.5 11C32.3718 13.6923 24.5226 16.2491 19.3944 18.9413L39 15.5L39.5 17V18V19.5V20V21V22V22.5L39 24.5L38.5 26.5M35.5 32.5L34.5 33L36.5 30.5M38.5 26.5V26V25.5V26.5ZM38.5 26.5L37 26L35 25.5C30.5129 24.7307 23.8815 23.1266 19.3944 22.3573C23.8815 24.665 33.5129 26.1924 38 28.5L36.5 30.5" stroke="white" stroke-miterlimit="10" stroke-linecap="round" stroke-linejoin="round"/>
</g>
</g>
</svg>
