<svg width="30" height="31" viewBox="0 0 30 31" fill="none" xmlns="http://www.w3.org/2000/svg">
<g id="linkedin" clip-path="url(#clip0_9_9700)">
<g id="Group">
<path id="Path_2520" d="M25.562 25.4494H21.1166V18.6575C21.1166 17.0377 21.0871 14.9535 18.8045 14.9535C16.4894 14.9535 16.1346 16.7175 16.1346 18.5406V25.4494H11.6907V11.4818H15.9587V13.39H16.0178C16.8886 11.9391 18.5059 11.0722 20.2282 11.1342C24.7341 11.1342 25.5635 14.0261 25.5635 17.7863L25.562 25.4494ZM6.67471 9.57218C5.24959 9.57218 4.09501 8.44571 4.09501 7.05529C4.09501 5.66488 5.24959 4.53841 6.67471 4.53841C8.09984 4.53841 9.25442 5.66488 9.25442 7.05529C9.25442 8.44571 8.09984 9.57218 6.67471 9.57218ZM8.89666 25.4494H4.44685V11.4818H8.89666V25.4494ZM27.778 0.511405H2.21308C1.00527 0.498424 0.0147834 1.44316 0 2.62155V27.6663C0.0147834 28.8461 1.00527 29.7909 2.21308 29.7779H27.778C28.9888 29.7923 29.9837 28.8476 30 27.6663V2.6201C29.9823 1.43883 28.9873 0.494097 27.778 0.509963" fill="white"/>
</g>
</g>
<defs>
<clipPath id="clip0_9_9700">
<rect width="30" height="30" fill="white" transform="translate(0 0.5)"/>
</clipPath>
</defs>
</svg>
