<svg width="108" height="19" viewBox="0 0 108 19" fill="none" xmlns="http://www.w3.org/2000/svg">
<g id="&#208;&#190; &#208;&#186;&#208;&#190;&#208;&#188;&#208;&#191;&#208;&#176;&#209;&#129;&#209;&#129; svg 1" clip-path="url(#clip0_348_2593)">
<path id="Vector" d="M12.4264 16.2818C11.2323 16.6517 9.72894 16.8449 8.0703 16.8449C3.25021 16.8449 0 14.4194 0 9.28628V8.98297C0 3.84984 3.29458 1.42383 8.18124 1.42383C9.86157 1.42383 11.4093 1.59722 12.5813 1.96525V5.43064C11.5863 5.14907 10.6135 5.01914 9.19792 5.01914C6.1469 5.01914 4.66527 6.34058 4.66527 9.06942V9.19934C4.66527 11.9523 6.1469 13.2496 9.15206 13.2496C10.7219 13.2496 11.8052 13.0762 12.9106 12.7517L12.4264 16.2818Z" fill="white"/>
<path id="Vector_2" d="M38.0413 1.56445L41.8871 10.943L45.7329 1.56445H51.1279V16.7262H46.4878V8.90722L43.3924 16.7262H40.3848L37.3116 8.90722V16.7262H32.668V1.56445H38.0413Z" fill="white"/>
<path id="Vector_3" d="M57.3233 16.7262H52.6816V1.56445H60.0883C63.9578 1.56445 66.1913 3.25489 66.1913 6.71931C66.1913 10.2064 64.1348 11.8959 60.6415 11.8959H57.3247L57.3233 16.7262ZM59.7111 8.30059C60.8831 8.30059 61.5463 7.7809 61.5463 6.71931C61.5463 5.67994 60.9053 5.16025 59.7777 5.16025H57.3233V8.29962L59.7111 8.30059Z" fill="white"/>
<path id="Vector_4" d="M70.6336 1.54297H75.0558L81.0711 16.726H75.9625L75.3876 14.9283H70.2801L69.7052 16.726H64.5977L70.6336 1.54297ZM74.2378 11.3325L72.845 6.93738L71.4299 11.3325H74.2378Z" fill="white"/>
<path id="Vector_5" d="M90.7761 7.71672C92.1911 8.21516 94.4025 9.16566 94.4025 12.1355C94.4025 15.2541 91.9481 16.8571 87.7911 16.8571C85.9782 16.8571 84.3644 16.5538 82.2857 15.8825L81.7773 12.4601C83.9882 13.0232 85.8697 13.2613 87.2384 13.2613C89.0735 13.2613 89.7594 12.8267 89.7594 12.3084C89.7594 11.4637 87.8577 11.2256 84.9832 10.0775C83.9882 9.68777 81.7995 8.75658 81.7995 5.91907C81.7995 2.93038 84.2318 1.43555 88.2092 1.43555C89.8008 1.43555 91.7908 1.67414 93.3828 2.19383V5.76789C91.8351 5.2482 90.1326 5.03183 88.7836 5.03183C87.015 5.03183 86.4623 5.39986 86.4623 5.81136C86.4648 6.58944 88.4104 6.84977 90.7761 7.71672Z" fill="white"/>
<path id="Vector_6" d="M104.374 7.71672C105.789 8.21516 108 9.16566 108 12.1355C108 15.2541 105.546 16.8571 101.389 16.8571C99.5758 16.8571 97.9621 16.5538 95.8833 15.8825L95.375 12.4601C97.5859 13.0232 99.4673 13.2613 100.836 13.2613C102.671 13.2613 103.357 12.8267 103.357 12.3084C103.357 11.4637 101.455 11.2256 98.5808 10.0775C97.5859 9.68777 95.3972 8.75658 95.3972 5.91907C95.3972 2.93038 97.8289 1.43555 101.807 1.43555C103.399 1.43555 105.389 1.67414 106.981 2.19383V5.76789C105.433 5.2482 103.731 5.03183 102.382 5.03183C100.613 5.03183 100.06 5.39986 100.06 5.81136C100.063 6.58944 102.008 6.84977 104.374 7.71672Z" fill="white"/>
<path id="Vector_7" d="M31.7712 9.51374C31.6563 9.55238 31.5409 9.59006 31.426 9.63014L29.2655 10.3788C29.2531 10.3831 29.2403 10.387 29.228 10.3918C29.2024 10.4001 29.1798 10.4153 29.1627 10.4358C29.1457 10.4562 29.135 10.481 29.1319 10.5072C29.1146 10.6159 29.0964 10.7251 29.0771 10.8337C28.866 12.064 28.3212 13.216 27.4999 14.1694C26.6786 15.1228 25.6109 15.8425 24.4084 16.2533C24.0527 16.3765 23.6868 16.4696 23.3148 16.5315C23.1965 16.5508 23.0781 16.5691 22.9559 16.5885L22.0822 19C21.7745 18.2006 21.4905 17.395 21.1976 16.5851L20.9802 16.5518C20.6052 16.4964 20.2358 16.41 19.8758 16.2934C18.9878 16.0086 18.1659 15.5552 17.4569 14.9591C16.748 14.363 16.1659 13.6359 15.744 12.8193C15.4676 12.2854 15.2641 11.7181 15.139 11.1322C15.0966 10.9347 15.0606 10.7357 15.028 10.5367C15.0245 10.4996 15.0095 10.4644 14.985 10.4358C14.9605 10.4073 14.9277 10.3867 14.891 10.3768C14.2707 10.164 13.6508 9.94988 13.0312 9.73447L12.4227 9.52244C12.4124 9.51858 12.402 9.51327 12.3828 9.50554C12.4104 9.49443 12.4321 9.48573 12.4509 9.47849C12.9745 9.29495 13.4981 9.11158 14.0217 8.92837C14.2875 8.83612 14.5542 8.74677 14.8205 8.65597C14.8387 8.65017 14.8565 8.64342 14.8742 8.63665C14.9123 8.62369 14.9461 8.60093 14.9721 8.57077C14.9982 8.5406 15.0154 8.50414 15.0221 8.46519C15.0423 8.36425 15.0586 8.26282 15.0783 8.16188C15.2244 7.40164 15.5037 6.67189 15.9037 6.00489C16.6543 4.72411 17.8029 3.71167 19.182 3.11521C19.6558 2.90388 20.1535 2.7484 20.6646 2.65203C20.7938 2.62788 20.9235 2.6076 21.0532 2.58538C21.0806 2.58124 21.1063 2.56963 21.1273 2.55186C21.1483 2.5341 21.1638 2.5109 21.172 2.48492C21.2213 2.34003 21.2765 2.20044 21.3283 2.05748L22.0496 0.0666323C22.0565 0.0477961 22.0634 0.0284747 22.0753 -0.00195312C22.0871 0.0260598 22.095 0.042966 22.1014 0.0603533L22.9667 2.45353C22.9711 2.4656 22.9756 2.47816 22.9805 2.49023C22.9895 2.51583 23.0056 2.53843 23.0271 2.55551C23.0485 2.57258 23.0744 2.58343 23.1018 2.58683C23.2261 2.60663 23.3483 2.62788 23.4731 2.65155C24.2708 2.8002 25.0353 3.08655 25.7308 3.49725C26.8591 4.15847 27.7802 5.11084 28.3933 6.25024C28.6969 6.81684 28.9181 7.42224 29.0505 8.04886C29.0786 8.18072 29.0998 8.31402 29.123 8.44636C29.123 8.46085 29.1289 8.47582 29.1309 8.49031C29.1346 8.52212 29.1481 8.55207 29.1696 8.57621C29.1911 8.60035 29.2195 8.61755 29.2512 8.62554C29.3685 8.66418 29.4849 8.70524 29.6017 8.74581L31.6726 9.4669L31.7712 9.5007V9.51374ZM27.5891 9.75523C27.6022 8.68964 27.293 7.64409 26.7007 6.75024C26.1083 5.85639 25.2592 5.15423 24.2603 4.73217C23.2613 4.31012 22.1572 4.18705 21.087 4.37846C20.0168 4.56987 19.0284 5.0672 18.2462 5.80783C17.4639 6.54846 16.9229 7.49925 16.6912 8.54048C16.4596 9.58171 16.5476 10.6668 16.9442 11.6591C17.3409 12.6514 18.0284 13.5066 18.9203 14.1169C19.8121 14.7272 20.8683 15.0654 21.9559 15.0888C22.6845 15.1053 23.4091 14.9799 24.0877 14.72C24.7664 14.4602 25.3857 14.0709 25.9097 13.5748C26.4337 13.0788 26.8519 12.4858 27.1402 11.8302C27.4285 11.1746 27.5811 10.4695 27.5891 9.75572V9.75523Z" fill="white"/>
<path id="Vector_8" d="M26.9468 9.50707C26.9461 10.4527 26.6585 11.3768 26.1205 12.162C25.5824 12.9472 24.8183 13.5579 23.9251 13.9167C23.0318 14.2755 22.0499 14.366 21.1041 14.1769C20.1582 13.9877 19.2911 13.5274 18.6129 12.8544C17.9347 12.1814 17.476 11.3261 17.2952 10.3972C17.1143 9.46832 17.2195 8.50771 17.5972 7.63746C17.975 6.76721 18.6084 6.02662 19.4168 5.50977C20.2252 4.99292 21.1722 4.72315 22.1376 4.73473C23.4192 4.74949 24.6432 5.25896 25.5436 6.15251C26.4441 7.04605 26.9483 8.2515 26.9468 9.50707ZM22.0759 13.1256C22.0942 13.1507 22.107 13.1666 22.1178 13.183C22.213 13.3318 22.3101 13.4801 22.4028 13.6303C22.4209 13.6669 22.4511 13.6964 22.4886 13.714C22.526 13.7315 22.5685 13.7361 22.6089 13.7269C22.6163 13.7269 22.6242 13.7269 22.6316 13.7269C22.7302 13.709 22.8288 13.6935 22.9299 13.6733C23.3187 13.5962 23.6953 13.4687 24.0496 13.2941C24.5517 13.044 24.9976 12.698 25.3611 12.2765C25.71 11.883 25.9813 11.4295 26.1614 10.9391C26.2715 10.6302 26.3456 10.31 26.3823 9.98474C26.3873 9.95703 26.3831 9.92846 26.3702 9.9033C26.3573 9.87815 26.3365 9.85775 26.3108 9.84515C26.1495 9.74856 25.9893 9.65196 25.829 9.55247C25.8093 9.54088 25.7906 9.52832 25.7664 9.51335C25.7866 9.50031 25.8019 9.48968 25.8157 9.48002L26.2541 9.21342C26.3832 9.13614 26.402 9.07577 26.3818 8.93136C26.381 8.9276 26.38 8.92389 26.3788 8.92025C26.3545 8.8111 26.3302 8.70162 26.3058 8.59182C26.1234 7.78911 25.7511 7.08685 25.1476 6.50921C24.6018 5.98614 23.9683 5.607 23.2272 5.40994C23.0214 5.35427 22.8116 5.31391 22.5995 5.28919C22.5581 5.28245 22.5155 5.28925 22.4783 5.30853C22.4412 5.32782 22.4115 5.35852 22.3939 5.39593C22.2983 5.5558 22.1967 5.71084 22.0981 5.86829C22.093 5.87481 22.0874 5.88095 22.0813 5.88664C22.0725 5.87457 22.0636 5.86491 22.0567 5.85428C21.9773 5.73064 21.8984 5.60748 21.8195 5.48335C21.7914 5.43892 21.7653 5.39352 21.7367 5.34908C21.7221 5.32347 21.6994 5.30316 21.672 5.29116C21.6447 5.27915 21.6141 5.27609 21.5848 5.28243C21.4103 5.31093 21.2353 5.33749 21.0632 5.37903C20.1451 5.60603 19.3715 6.061 18.7656 6.77967C18.3874 7.21841 18.1041 7.72778 17.9328 8.27692C17.8624 8.51587 17.8113 8.75988 17.7799 9.0067C17.772 9.04209 17.7766 9.07909 17.7931 9.11152C17.8097 9.14395 17.837 9.16986 17.8707 9.18492C18.0339 9.27814 18.1916 9.37811 18.3514 9.47857C18.3642 9.4863 18.3756 9.49548 18.3918 9.50707C18.3691 9.52204 18.3504 9.5346 18.3317 9.54619C18.1882 9.63506 18.0457 9.72634 17.9002 9.81183C17.8514 9.83666 17.8129 9.87739 17.7914 9.92702C17.7699 9.97665 17.7667 10.0321 17.7824 10.0837C17.7824 10.0891 17.7824 10.0944 17.7859 10.1002C17.8026 10.177 17.8199 10.2533 17.8352 10.3301C17.9152 10.7305 18.053 11.1177 18.2444 11.48C18.5036 11.9635 18.8566 12.3927 19.2838 12.7435C19.7536 13.1403 20.3075 13.4301 20.9054 13.5921C21.1172 13.6472 21.3323 13.6897 21.5493 13.7191C21.5882 13.7287 21.6293 13.7253 21.666 13.7096C21.7028 13.6939 21.7332 13.6667 21.7525 13.6322C21.8457 13.4844 21.9408 13.3376 22.0355 13.1903C22.0439 13.171 22.0567 13.1526 22.0759 13.1256Z" fill="white"/>
<path id="Vector_9" d="M25.1776 9.46013L25.4301 9.50263V9.51036L25.1791 9.54996C25.1461 10.3623 24.8596 11.0675 24.2694 11.6456C23.6793 12.2237 22.9683 12.5111 22.1335 12.5377C22.1182 12.6053 22.1025 12.6739 22.0867 12.742H22.0749C22.0477 12.6807 22.0507 12.6106 22.0255 12.5425C21.994 12.5396 21.9605 12.5353 21.9269 12.5333C21.4038 12.5132 20.8953 12.3588 20.4522 12.0856C19.7156 11.6229 19.2383 10.9781 19.0519 10.1353C19.0132 9.95411 18.9891 9.77016 18.98 9.58522C18.98 9.57556 18.98 9.56638 18.977 9.5519L18.7305 9.51036V9.50311L18.977 9.46109C19.01 8.64824 19.2965 7.94212 19.8867 7.36495C20.4769 6.78779 21.1913 6.49559 22.0246 6.47482C22.0329 6.43667 22.0408 6.40237 22.0477 6.36808C22.0534 6.33526 22.0618 6.30295 22.0729 6.27148C22.1104 6.33331 22.1044 6.40672 22.1335 6.47386C22.9624 6.49945 23.6783 6.78779 24.2675 7.36544C24.8567 7.94308 25.1431 8.64582 25.1776 9.46013ZM25.079 9.4466C25.0825 9.43791 25.0854 9.43453 25.0854 9.43115C25.0854 9.41231 25.0854 9.39396 25.0854 9.37512C25.0806 9.15237 25.0475 8.93107 24.9868 8.71634C24.8597 8.26145 24.6207 7.84404 24.2906 7.50068C23.9241 7.10806 23.4559 6.81999 22.9357 6.66705C22.7361 6.6097 22.5305 6.5747 22.3229 6.56272C22.2627 6.55886 22.2021 6.56272 22.138 6.56272C22.138 6.58639 22.138 6.60474 22.1424 6.62261C22.1646 6.77813 22.1868 6.93365 22.2104 7.08869C22.2597 7.40118 22.3091 7.71319 22.3544 8.02568C22.3998 8.33816 22.4471 8.65355 22.494 8.96893C22.4942 9.00046 22.507 9.03064 22.5297 9.05302C22.5524 9.0754 22.5831 9.08821 22.6152 9.08872C22.7242 9.10562 22.8337 9.11915 22.9431 9.13702C23.1354 9.16503 23.3272 9.19449 23.5195 9.22298L24.2433 9.32779C24.4864 9.36353 24.729 9.40024 24.972 9.43646C25.012 9.43936 25.0475 9.44226 25.081 9.4466H25.079ZM22.0172 6.56272C20.4606 6.5265 19.0248 7.92087 19.0717 9.44854L21.6355 9.07374C21.7672 8.23287 21.8919 7.39828 22.0191 6.56272H22.0172ZM22.0172 12.4551C21.889 11.6152 21.7613 10.7801 21.6331 9.93876L19.0579 9.563C19.0579 9.59681 19.0579 9.62289 19.0579 9.64849C19.0705 9.8406 19.1 10.0313 19.1461 10.2184C19.2986 10.8176 19.6383 11.3551 20.1177 11.756C20.5972 12.1569 21.1924 12.4011 21.8204 12.4546C21.886 12.4575 21.9491 12.4532 22.0206 12.4532L22.0172 12.4551ZM25.0953 9.56155C25.0011 9.57653 24.9129 9.5915 24.8246 9.60454L24.4119 9.66443C24.2443 9.68858 24.0767 9.71273 23.909 9.73881L23.4115 9.81029C23.2173 9.83895 23.0232 9.86793 22.8292 9.89723C22.7656 9.90689 22.702 9.91896 22.6384 9.93007C22.6009 9.93408 22.566 9.95072 22.5397 9.97715C22.5133 10.0036 22.4972 10.0382 22.494 10.075C22.487 10.1155 22.4787 10.1556 22.4727 10.1967C22.4254 10.5145 22.3781 10.8324 22.3307 11.1506C22.2719 11.5408 22.2129 11.9307 22.1537 12.3203C22.1468 12.3643 22.1429 12.4082 22.137 12.4594C22.5614 12.4604 22.9803 12.3656 23.3612 12.1822C23.9533 11.909 24.4381 11.4538 24.7418 10.8859C24.9636 10.4767 25.0857 10.0228 25.0988 9.55962L25.0953 9.56155ZM22.4885 9.50311C22.4885 9.39641 22.4453 9.29408 22.3682 9.21863C22.2912 9.14318 22.1867 9.10079 22.0778 9.10079C21.9689 9.10079 21.8644 9.14318 21.7874 9.21863C21.7104 9.29408 21.6671 9.39641 21.6671 9.50311C21.6671 9.55595 21.6777 9.60826 21.6984 9.65708C21.719 9.70589 21.7493 9.75024 21.7874 9.7876C21.8255 9.82496 21.8708 9.85459 21.9206 9.87481C21.9705 9.89503 22.0239 9.90544 22.0778 9.90544C22.1317 9.90544 22.1852 9.89503 22.235 9.87481C22.2848 9.85459 22.3301 9.82496 22.3682 9.7876C22.4064 9.75024 22.4366 9.70589 22.4573 9.65708C22.4779 9.60826 22.4885 9.55595 22.4885 9.50311Z" fill="white"/>
<path id="Vector_10" d="M23.6888 7.933C23.6837 7.94403 23.6777 7.95468 23.671 7.96488L22.9492 8.92119C22.9339 8.9464 22.9102 8.96566 22.8821 8.9757C22.8539 8.98573 22.8231 8.98592 22.7949 8.97624C22.7633 8.96924 22.7322 8.96054 22.7017 8.95016C22.6835 8.9413 22.6685 8.92712 22.6588 8.90959C22.6434 8.87947 22.6302 8.84832 22.6193 8.81638C22.6092 8.79194 22.6067 8.7651 22.6123 8.73928C22.6178 8.71346 22.6311 8.68985 22.6504 8.67148C22.6688 8.65233 22.6889 8.63487 22.7106 8.61932C23.0205 8.39393 23.331 8.16983 23.6419 7.94701C23.6538 7.93832 23.6666 7.93156 23.6794 7.92383L23.6888 7.933Z" fill="white"/>
<path id="Vector_11" d="M20.4659 7.91602L20.641 8.04159C20.92 8.24396 21.1981 8.44778 21.4791 8.6487C21.5033 8.66199 21.5221 8.68283 21.5327 8.70789C21.5432 8.73294 21.5449 8.76075 21.5373 8.78683C21.5275 8.82876 21.52 8.87116 21.5147 8.91386C21.5139 8.92309 21.5103 8.93188 21.5043 8.93904C21.4983 8.94621 21.4902 8.95141 21.4811 8.95394C21.4321 8.97624 21.3771 8.98282 21.324 8.97277C21.2709 8.96271 21.2223 8.93652 21.1853 8.89791C21.1652 8.87802 21.1465 8.85672 21.1296 8.83416C20.9136 8.54437 20.6977 8.25459 20.4817 7.9648C20.4723 7.95176 20.464 7.93824 20.4551 7.92471L20.4659 7.91602Z" fill="white"/>
<path id="Vector_12" d="M20.4531 11.0875C20.463 11.073 20.4724 11.0575 20.4827 11.0435L21.1922 10.1065C21.1966 10.1007 21.2011 10.0945 21.206 10.0887C21.2207 10.0617 21.2454 10.0413 21.2751 10.0316C21.3047 10.0219 21.3369 10.0236 21.3653 10.0365C21.3688 10.0379 21.3724 10.039 21.3761 10.0399C21.4802 10.0476 21.5117 10.1225 21.5349 10.2046C21.5418 10.2272 21.5425 10.2511 21.5368 10.274C21.5312 10.2969 21.5195 10.318 21.5028 10.335C21.4826 10.3574 21.4601 10.3777 21.4358 10.3958C21.1232 10.6212 20.8109 10.8476 20.499 11.0749C20.4881 11.0826 20.4768 11.0894 20.4659 11.0962L20.4531 11.0875Z" fill="white"/>
<path id="Vector_13" d="M23.6898 11.0965C23.6774 11.0901 23.6654 11.083 23.6539 11.0753C23.3319 10.8386 23.0129 10.601 22.688 10.3667C22.6659 10.3523 22.6483 10.332 22.6374 10.3083C22.6265 10.2845 22.6227 10.2583 22.6263 10.2325C22.6263 10.1987 22.6327 10.1653 22.6347 10.132C22.6347 10.1198 22.6383 10.1079 22.645 10.0976C22.6517 10.0873 22.6613 10.0791 22.6727 10.0741C22.7713 10.0258 22.8985 10.0127 22.9872 10.1325C23.2165 10.4426 23.4487 10.7507 23.6775 11.0593C23.6839 11.068 23.6898 11.0772 23.6963 11.0864L23.6898 11.0965Z" fill="white"/>
<path id="Vector_14" d="M21.8657 9.49932C21.865 9.47135 21.8701 9.44353 21.8807 9.41755C21.8912 9.39156 21.9071 9.36794 21.9272 9.34811C21.9474 9.32829 21.9714 9.31267 21.9979 9.30219C22.0244 9.29171 22.0528 9.2866 22.0813 9.28715C22.1099 9.2877 22.138 9.29392 22.1641 9.30542C22.1901 9.31691 22.2135 9.33346 22.2328 9.35406C22.2521 9.37465 22.267 9.39886 22.2765 9.42524C22.2861 9.45162 22.29 9.47961 22.2882 9.50753C22.2889 9.5355 22.2838 9.56332 22.2732 9.5893C22.2626 9.61529 22.2468 9.63891 22.2266 9.65874C22.2065 9.67856 22.1825 9.69418 22.156 9.70466C22.1295 9.71514 22.1011 9.72025 22.0726 9.7197C22.044 9.71914 22.0159 9.71293 21.9898 9.70143C21.9638 9.68994 21.9404 9.67339 21.9211 9.65279C21.9017 9.6322 21.8869 9.60799 21.8773 9.58161C21.8678 9.55523 21.8638 9.52724 21.8657 9.49932Z" fill="white"/>
</g>
<defs>
<clipPath id="clip0_348_2593">
<rect width="108" height="19" fill="white"/>
</clipPath>
</defs>
</svg>
