<svg width="20" height="20" viewBox="0 0 20 20" fill="none" xmlns="http://www.w3.org/2000/svg">
<g id="phone-flip 1" clip-path="url(#clip0_9_9671)">
<path id="Vector" d="M18.4753 1.51654L17.6003 0.758203C16.5919 -0.25013 14.9586 -0.25013 13.9503 0.758203C13.9253 0.783203 12.3836 2.79154 12.3836 2.79154C11.4336 3.79154 11.4336 5.36654 12.3836 6.3582L13.3503 7.57487C12.1336 10.3332 10.2419 12.2332 7.57528 13.3665L6.35861 12.3915C5.36694 11.4332 3.78361 11.4332 2.79194 12.3915C2.79194 12.3915 0.783611 13.9332 0.758611 13.9582C-0.249722 14.9665 -0.249722 16.5999 0.716944 17.5665L1.55028 18.5249C2.50861 19.4832 3.80028 20.0082 5.20028 20.0082C11.5669 20.0082 20.0003 11.5665 20.0003 5.2082C20.0003 3.81654 19.4753 2.51654 18.4753 1.52487V1.51654ZM5.20028 18.3332C4.25028 18.3332 3.37528 17.9832 2.77528 17.3749L1.94194 16.4165C1.60028 16.0749 1.58361 15.5165 1.90861 15.1582C1.90861 15.1582 3.90028 13.6249 3.92528 13.5999C4.26694 13.2582 4.86694 13.2582 5.21695 13.5999C5.24194 13.6249 6.91694 14.9665 6.91694 14.9665C7.15028 15.1499 7.45861 15.1999 7.73361 15.0915C11.1836 13.7749 13.6586 11.3082 15.0836 7.74987C15.1919 7.47487 15.1503 7.1582 14.9586 6.91654C14.9586 6.91654 13.6169 5.2332 13.6003 5.21654C13.2419 4.8582 13.2419 4.2832 13.6003 3.92487C13.6253 3.89987 15.1586 1.9082 15.1586 1.9082C15.5169 1.5832 16.0753 1.59154 16.4586 1.97487L17.3336 2.7332C17.9753 3.37487 18.3336 4.24987 18.3336 5.19987C18.3336 10.9999 10.1919 18.3332 5.20028 18.3332Z" fill="white"/>
</g>
<defs>
<clipPath id="clip0_9_9671">
<rect width="20" height="20" fill="white"/>
</clipPath>
</defs>
</svg>
