<svg width="100" height="100" viewBox="0 0 100 100" fill="none" xmlns="http://www.w3.org/2000/svg">
<g id="check-circle 1" clip-path="url(#clip0_1_7176)">
<path id="Vector" d="M67.9083 34.5333L73.7583 40.4708L49.6208 64.25C48.0083 65.8625 45.8875 66.6667 43.7583 66.6667C41.6292 66.6667 39.4875 65.8542 37.8583 64.2292L26.2667 52.9958L32.0708 47.0083L43.7083 58.2875L67.9083 34.5333ZM100 50C100 77.5708 77.5708 100 50 100C22.4292 100 0 77.5708 0 50C0 22.4292 22.4292 0 50 0C77.5708 0 100 22.4292 100 50ZM91.6667 50C91.6667 27.025 72.975 8.33333 50 8.33333C27.025 8.33333 8.33333 27.025 8.33333 50C8.33333 72.975 27.025 91.6667 50 91.6667C72.975 91.6667 91.6667 72.975 91.6667 50Z" fill="#199A26"/>
</g>
<defs>
<clipPath id="clip0_1_7176">
<rect width="100" height="100" fill="white"/>
</clipPath>
</defs>
</svg>
