<svg width="40" height="40" viewBox="0 0 40 40" fill="none" xmlns="http://www.w3.org/2000/svg">
<g id="youtube 2" clip-path="url(#clip0_1_5357)">
<g id="Group">
<g id="Group_2">
<g id="Group_3">
<path id="Vector" d="M18.2328 0.0912063C10.8444 0.701257 4.28635 5.53082 1.49029 12.4447C-1.55996 19.9517 0.151568 28.4077 5.89621 34.1693C11.0477 39.3547 18.7581 41.2696 25.8245 39.1514C32.0945 37.2704 37.246 32.1019 39.144 25.8319C41.2791 18.7655 39.3473 11.0213 34.1619 5.88668C30.671 2.44668 26.4007 0.464015 21.5372 0.0742604C20.029 -0.0274147 19.7749 -0.0274146 18.2328 0.0912063ZM26.7735 11.3602C29.7898 11.5127 30.2304 11.6144 31.0947 12.4108C31.6539 12.9362 32.0267 13.7496 32.2639 15.0035C32.5181 16.3762 32.5351 23.7645 32.2809 25.0694C31.8233 27.374 31.0099 28.2552 29.0612 28.5941C27.9258 28.7975 12.3695 28.7975 11.1155 28.5941C8.03138 28.1196 7.47217 26.7979 7.45523 20.0873C7.45523 15.0205 7.76025 13.4106 8.91257 12.36C9.72597 11.6313 10.2852 11.4788 12.8948 11.3602C15.4706 11.2416 24.3502 11.2416 26.7735 11.3602Z" fill="#0E273A"/>
<path id="Vector_2" d="M16.6396 20.0195V23.3578L19.9271 21.7141C21.7403 20.799 23.2146 20.0364 23.2146 20.0195C23.2146 19.9856 21.7403 19.223 19.9271 18.3249L16.6396 16.6812V20.0195Z" fill="#0E273A"/>
</g>
</g>
</g>
</g>
<defs>
<clipPath id="clip0_1_5357">
<rect width="40" height="40" fill="white"/>
</clipPath>
</defs>
</svg>
